<?xml version="1.0" encoding="utf-8"?>
<!DOCTYPE svg PUBLIC "-//W3C//DTD SVG 1.1//EN" "http://www.w3.org/Graphics/SVG/1.1/DTD/svg11.dtd">
<svg version="1.1" xmlns="http://www.w3.org/2000/svg" xmlns:xlink="http://www.w3.org/1999/xlink" x="0px" y="0px" viewBox="0 0 256 256" enable-background="new 0 0 256 256" xml:space="preserve">
<g><g><g><path fill="#000000" d="M32.4,10.7c-8.2,1.7-15.6,7.7-19.5,15.4c-3.2,6.5-3,0.1-2.9,103.5l0.1,93.4l1,3c3,8.9,10.3,16,19.1,18.9l3.3,1h94.5h94.5l3.3-1c8.9-2.8,16.2-10.2,19.1-19.1l1-3.3v-94.5V33.5l-1-3.3c-2.8-8.8-10-16-18.9-19.1l-3-1l-93.8-0.1C50.1,10,35,10.1,32.4,10.7z M224.3,14.6c4.7,1.8,7.4,3.6,10.7,6.9c3.1,3.2,5.3,6.8,6.8,11.3c0.8,2.5,0.9,5.9,0.9,95s0,92.5-0.9,95c-3,9-9.5,15.5-18.5,18.5c-2.5,0.8-5.9,0.9-95,0.9c-89.1,0-92.5,0-95-0.9c-4.5-1.5-8.1-3.7-11.3-6.8c-3.4-3.3-5.1-6-6.9-10.7l-1.2-3.1l-0.1-91.2c-0.1-82.2,0-91.6,0.6-94.6c2.2-10,10-18.1,19.9-20.7c3.4-0.9,5.7-0.9,95.2-0.8l91.7,0.1L224.3,14.6z"/><path fill="#000000" d="M85.8,128.1v56.4h19.3c10.6,0,21.1-0.2,23.3-0.5c12-1.5,21.5-6,29.1-13.9c7.3-7.7,11.2-16,12.5-27c0.7-5.3,0.7-24.5,0-29.7c-1.4-11.5-6.1-21.2-13.9-28.6c-5.9-5.7-11.1-8.6-18.9-10.9c-6.4-1.8-11-2.2-31.8-2.2H85.8L85.8,128.1L85.8,128.1z M129.2,84.6c12.3,2.5,21,10.9,24.5,23.8c1,3.5,1,4.7,1,19.7s0,16.1-1,19.7c-3.8,13.7-13,22.5-25.8,24.5c-1.7,0.3-8.4,0.5-14.8,0.5h-11.8v-44.4V83.8h12.2C122.7,83.8,126.4,84,129.2,84.6z"/></g></g></g>
</svg>